<svg width="64" height="55" viewBox="0 0 64 55" fill="none" xmlns="http://www.w3.org/2000/svg">
<g id="Mask group">
<mask id="mask0_3_11" style="mask-type:luminance" maskUnits="userSpaceOnUse" x="0" y="0" width="64" height="55">
<g id="Group">
<g id="Group_2">
<path id="Vector" d="M47 9.5V23C44.8936 22.9976 42.8104 23.4399 40.8868 24.2981C38.9631 25.1563 37.2423 26.4109 35.837 27.98C33.3618 30.7299 31.9946 34.3002 32 38C32.0009 40.655 32.7058 43.2624 34.0428 45.5562C35.3798 47.85 37.3012 49.7483 39.611 51.0575C35.618 52.265 30.317 53 24.5 53C12.074 53 2 49.6415 2 45.5V9.5" stroke="white" stroke-width="4" stroke-linecap="round" stroke-linejoin="round"/>
<path id="Vector_2" d="M62 38C62 46.2845 55.2845 53 47 53C44.315 53 41.792 52.295 39.611 51.0575C37.3012 49.7483 35.3798 47.85 34.0428 45.5562C32.7058 43.2624 32.0009 40.655 32 38C32 34.148 33.452 30.635 35.837 27.98C37.2423 26.4109 38.9631 25.1563 40.8868 24.2981C42.8104 23.4399 44.8936 22.9976 47 23C55.2845 23 62 29.7155 62 38ZM47 9.5C47 13.6415 36.926 17 24.5 17C12.074 17 2 13.6415 2 9.5C2 5.3585 12.074 2 24.5 2C36.926 2 47 5.3585 47 9.5Z" fill="white" stroke="white" stroke-width="4" stroke-linecap="round" stroke-linejoin="round"/>
<path id="Vector_3" d="M2 33.5C2 37.6415 12.074 41 24.5 41C27.2105 41 29.81 40.841 32.216 40.547M2 21.5C2 25.6415 12.074 29 24.5 29C28.634 29 32.5085 28.628 35.837 27.98" stroke="white" stroke-width="4" stroke-linecap="round" stroke-linejoin="round"/>
<path id="Vector_4" d="M47 30.5V36.5M47 44V45.5" stroke="black" stroke-width="4" stroke-linecap="round" stroke-linejoin="round"/>
</g>
</g>
</mask>
<g mask="url(#mask0_3_11)">
<path id="Vector_5" d="M-4 -8.5H68V63.5H-4V-8.5Z" fill="#E24848"/>
</g>
</g>
</svg>
